<svg xmlns="http://www.w3.org/2000/svg" viewBox="0 15.449999809265137 173.89999389648438 43.75" data-asc="1.17626953125" width="173.89999389648438" height="43.75"><defs/><g><g><g transform="translate(0, 0)"><path d="M0 58.81L0 15.84L8.84 15.84L12.79 36.43L12.79 15.84L21.09 15.84L21.09 58.81L12.70 58.81L8.40 37.33L8.40 58.81L0 58.81ZM35.16 59.20Q30.00 59.20 27.28 56.09Q24.56 52.98 24.56 47.09L24.56 26.68Q24.56 21.17 27.26 18.31Q29.96 15.45 35.16 15.45Q40.36 15.45 43.05 18.31Q45.75 21.17 45.75 26.68L45.75 47.09Q45.75 52.98 43.03 56.09Q40.31 59.20 35.16 59.20M35.23 51.29Q37.18 51.29 37.18 47.51L37.18 26.54Q37.18 23.36 35.28 23.36Q33.13 23.36 33.13 26.61L33.13 47.56Q33.13 49.56 33.62 50.43Q34.11 51.29 35.23 51.29ZM52.91 58.81L52.91 24.10L47.80 24.10L47.80 15.84L66.60 15.84L66.60 24.10L61.50 24.10L61.50 58.81L52.91 58.81ZM68.99 58.81L68.99 15.84L86.18 15.84L86.18 24.15L77.73 24.15L77.73 32.52L85.84 32.52L85.84 40.60L77.73 40.60L77.73 50.44L86.74 50.44L86.74 58.81L68.99 58.81ZM89.14 46.39L89.14 40.72L101.73 40.72L101.73 46.39L89.14 46.39ZM103.96 58.81L108.11 15.84L122.68 15.84L126.76 58.81L118.63 58.81L118.02 51.88L112.84 51.88L112.30 58.81L103.96 58.81M113.45 45.02L117.36 45.02L115.48 23.17L115.09 23.17L113.45 45.02ZM129.39 58.81L129.39 15.84L140.75 15.84Q144.31 15.84 146.40 17.43Q148.49 19.02 149.39 21.95Q150.29 24.88 150.29 28.93Q150.29 32.84 149.54 35.73Q148.78 38.62 146.84 40.21Q144.90 41.80 141.33 41.80L137.84 41.80L137.84 58.81L129.39 58.81M137.84 34.08L138.33 34.08Q140.72 34.08 141.26 32.74Q141.80 31.40 141.80 28.78Q141.80 26.34 141.27 25.01Q140.75 23.68 138.79 23.68L137.84 23.68L137.84 34.08ZM153.00 58.81L153.00 15.84L164.36 15.84Q167.92 15.84 170.01 17.43Q172.09 19.02 173.00 21.95Q173.90 24.88 173.90 28.93Q173.90 32.84 173.14 35.73Q172.39 38.62 170.45 40.21Q168.51 41.80 164.94 41.80L161.45 41.80L161.45 58.81L153.00 58.81M161.45 34.08L161.94 34.08Q164.33 34.08 164.87 32.74Q165.41 31.40 165.41 28.78Q165.41 26.34 164.88 25.01Q164.36 23.68 162.40 23.68L161.45 23.68L161.45 34.08Z"/></g></g></g></svg>